<svg xmlns="http://www.w3.org/2000/svg" xmlns:xlink="http://www.w3.org/1999/xlink" width="450" zoomAndPan="magnify" viewBox="0 0 337.5 60" height="80" preserveAspectRatio="xMidYMid meet" version="1.0"><defs><g/><clipPath id="bfe253bd6f"><path d="M 0 1.746094 L 66 1.746094 L 66 59.164062 L 0 59.164062 Z M 0 1.746094 " clip-rule="nonzero"/></clipPath><clipPath id="684844d4f5"><path d="M 46 1.746094 L 102.074219 1.746094 L 102.074219 59.164062 L 46 59.164062 Z M 46 1.746094 " clip-rule="nonzero"/></clipPath><clipPath id="f2ee5dd1e5"><path d="M 154 18 L 198 18 L 198 59.953125 L 154 59.953125 Z M 154 18 " clip-rule="nonzero"/></clipPath><clipPath id="4220aa953c"><path d="M 201 18 L 241 18 L 241 59.953125 L 201 59.953125 Z M 201 18 " clip-rule="nonzero"/></clipPath><clipPath id="6e6d9a70ce"><path d="M 263 18 L 302 18 L 302 59.953125 L 263 59.953125 Z M 263 18 " clip-rule="nonzero"/></clipPath><clipPath id="b85716ff26"><path d="M 303 18 L 337 18 L 337 59.953125 L 303 59.953125 Z M 303 18 " clip-rule="nonzero"/></clipPath></defs><g clip-path="url(#bfe253bd6f)"><path fill="#ff4922" d="M 6.609375 43.921875 L 22.253906 43.921875 L 18.15625 54.363281 L 16.25 59.152344 L 0 59.152344 Z M 58.847656 43.921875 L 53.386719 31.382812 L 53.386719 31.359375 L 49.640625 22.753906 L 40.539062 1.804688 L 24.851562 1.804688 L 12.027344 31.382812 L 27.171875 31.382812 L 28.1875 28.777344 L 32.566406 17.699219 L 37.960938 31.382812 L 38.089844 31.691406 L 39.804688 36.039062 L 42.902344 43.921875 L 46.476562 53.039062 L 46.5 53.058594 L 48.925781 59.152344 L 65.5 59.152344 Z M 58.847656 43.921875 " fill-opacity="1" fill-rule="nonzero"/></g><g clip-path="url(#684844d4f5)"><path fill="#3c3bf5" d="M 89.921875 41.117188 C 93.453125 39.375 96.183594 36.945312 98.089844 33.855469 C 99.996094 30.765625 100.949219 27.144531 100.949219 22.996094 C 100.949219 18.667969 99.929688 14.917969 97.894531 11.714844 C 95.855469 8.515625 92.953125 6.066406 89.203125 4.34375 C 85.433594 2.621094 80.992188 1.761719 75.902344 1.761719 L 46.347656 1.761719 L 51.914062 14.5625 L 74.925781 14.5625 C 78.199219 14.5625 80.667969 15.292969 82.335938 16.769531 C 84.003906 18.25 84.828125 20.324219 84.828125 22.996094 C 84.828125 25.667969 84.003906 27.742188 82.335938 29.199219 C 80.667969 30.65625 78.199219 31.359375 74.925781 31.359375 L 66.085938 31.359375 L 66.085938 31.339844 L 53.386719 31.339844 L 53.386719 31.359375 L 58.847656 43.898438 L 74.773438 43.898438 L 85 59.152344 L 102.074219 59.152344 Z M 89.921875 41.117188 " fill-opacity="1" fill-rule="nonzero"/></g><path fill="#3c3bf5" d="M 6.195312 31.359375 L 4.050781 36.285156 L 0.738281 43.921875 L 42.902344 43.921875 L 37.984375 31.359375 Z M 6.195312 31.359375 " fill-opacity="1" fill-rule="nonzero"/><path fill="#0605b2" d="M 22.253906 43.921875 L 4.398438 48.996094 L 6.609375 43.921875 Z M 22.253906 43.921875 " fill-opacity="1" fill-rule="nonzero"/><path fill="#761500" d="M 37.984375 31.359375 L 39.542969 43.921875 L 42.902344 43.921875 Z M 37.984375 31.359375 " fill-opacity="1" fill-rule="nonzero"/><g fill="#000000" fill-opacity="1"><g transform="translate(118.783008, 58.613708)"><g><path d="M 3.890625 -38.9375 L 14.90625 -38.9375 L 14.90625 -8.734375 L 33.484375 -8.734375 L 33.484375 0 L 3.890625 0 Z M 3.890625 -38.9375 "/></g></g></g><g clip-path="url(#f2ee5dd1e5)"><g fill="#000000" fill-opacity="1"><g transform="translate(152.718043, 58.613708)"><g><path d="M 23.53125 0.78125 C 19.414062 0.78125 15.71875 -0.0859375 12.4375 -1.828125 C 9.15625 -3.578125 6.578125 -5.988281 4.703125 -9.0625 C 2.828125 -12.144531 1.890625 -15.613281 1.890625 -19.46875 C 1.890625 -23.320312 2.828125 -26.785156 4.703125 -29.859375 C 6.578125 -32.941406 9.15625 -35.351562 12.4375 -37.09375 C 15.71875 -38.84375 19.414062 -39.71875 23.53125 -39.71875 C 27.644531 -39.71875 31.34375 -38.84375 34.625 -37.09375 C 37.90625 -35.351562 40.484375 -32.941406 42.359375 -29.859375 C 44.234375 -26.785156 45.171875 -23.320312 45.171875 -19.46875 C 45.171875 -15.613281 44.234375 -12.144531 42.359375 -9.0625 C 40.484375 -5.988281 37.90625 -3.578125 34.625 -1.828125 C 31.34375 -0.0859375 27.644531 0.78125 23.53125 0.78125 Z M 23.53125 -8.34375 C 25.5 -8.34375 27.28125 -8.804688 28.875 -9.734375 C 30.46875 -10.660156 31.726562 -11.96875 32.65625 -13.65625 C 33.582031 -15.34375 34.046875 -17.28125 34.046875 -19.46875 C 34.046875 -21.65625 33.582031 -23.59375 32.65625 -25.28125 C 31.726562 -26.96875 30.46875 -28.273438 28.875 -29.203125 C 27.28125 -30.128906 25.5 -30.59375 23.53125 -30.59375 C 21.5625 -30.59375 19.78125 -30.128906 18.1875 -29.203125 C 16.59375 -28.273438 15.332031 -26.96875 14.40625 -25.28125 C 13.476562 -23.59375 13.015625 -21.65625 13.015625 -19.46875 C 13.015625 -17.28125 13.476562 -15.34375 14.40625 -13.65625 C 15.332031 -11.96875 16.59375 -10.660156 18.1875 -9.734375 C 19.78125 -8.804688 21.5625 -8.34375 23.53125 -8.34375 Z M 23.53125 -8.34375 "/></g></g></g></g><g clip-path="url(#4220aa953c)"><g fill="#000000" fill-opacity="1"><g transform="translate(199.782051, 58.613708)"><g><path d="M 29.984375 -20.296875 L 39.71875 -20.296875 L 39.71875 -4.171875 C 37.488281 -2.578125 34.925781 -1.351562 32.03125 -0.5 C 29.144531 0.351562 26.253906 0.78125 23.359375 0.78125 C 19.285156 0.78125 15.613281 -0.078125 12.34375 -1.796875 C 9.082031 -3.523438 6.523438 -5.925781 4.671875 -9 C 2.816406 -12.082031 1.890625 -15.570312 1.890625 -19.46875 C 1.890625 -23.363281 2.816406 -26.847656 4.671875 -29.921875 C 6.523438 -33.003906 9.101562 -35.40625 12.40625 -37.125 C 15.707031 -38.851562 19.429688 -39.71875 23.578125 -39.71875 C 27.210938 -39.71875 30.476562 -39.101562 33.375 -37.875 C 36.269531 -36.65625 38.679688 -34.894531 40.609375 -32.59375 L 33.59375 -26.25 C 30.957031 -29.144531 27.804688 -30.59375 24.140625 -30.59375 C 20.804688 -30.59375 18.117188 -29.582031 16.078125 -27.5625 C 14.035156 -25.539062 13.015625 -22.84375 13.015625 -19.46875 C 13.015625 -17.320312 13.476562 -15.40625 14.40625 -13.71875 C 15.332031 -12.03125 16.628906 -10.710938 18.296875 -9.765625 C 19.960938 -8.816406 21.875 -8.34375 24.03125 -8.34375 C 26.144531 -8.34375 28.128906 -8.769531 29.984375 -9.625 Z M 29.984375 -20.296875 "/></g></g></g></g><g fill="#000000" fill-opacity="1"><g transform="translate(242.618082, 58.613708)"><g><path d="M 3.890625 -38.9375 L 14.90625 -38.9375 L 14.90625 0 L 3.890625 0 Z M 3.890625 -38.9375 "/></g></g></g><g clip-path="url(#6e6d9a70ce)"><g fill="#000000" fill-opacity="1"><g transform="translate(261.477069, 58.613708)"><g><path d="M 23.3125 0.78125 C 19.226562 0.78125 15.5625 -0.078125 12.3125 -1.796875 C 9.070312 -3.523438 6.523438 -5.925781 4.671875 -9 C 2.816406 -12.082031 1.890625 -15.570312 1.890625 -19.46875 C 1.890625 -23.363281 2.816406 -26.847656 4.671875 -29.921875 C 6.523438 -33.003906 9.070312 -35.40625 12.3125 -37.125 C 15.5625 -38.851562 19.226562 -39.71875 23.3125 -39.71875 C 26.863281 -39.71875 30.066406 -39.085938 32.921875 -37.828125 C 35.785156 -36.566406 38.160156 -34.75 40.046875 -32.375 L 33.046875 -26.03125 C 30.523438 -29.070312 27.460938 -30.59375 23.859375 -30.59375 C 21.742188 -30.59375 19.859375 -30.128906 18.203125 -29.203125 C 16.554688 -28.273438 15.28125 -26.96875 14.375 -25.28125 C 13.46875 -23.59375 13.015625 -21.65625 13.015625 -19.46875 C 13.015625 -17.28125 13.46875 -15.34375 14.375 -13.65625 C 15.28125 -11.96875 16.554688 -10.660156 18.203125 -9.734375 C 19.859375 -8.804688 21.742188 -8.34375 23.859375 -8.34375 C 27.460938 -8.34375 30.523438 -9.863281 33.046875 -12.90625 L 40.046875 -6.5625 C 38.160156 -4.1875 35.785156 -2.367188 32.921875 -1.109375 C 30.066406 0.148438 26.863281 0.78125 23.3125 0.78125 Z M 23.3125 0.78125 "/></g></g></g></g><g clip-path="url(#b85716ff26)"><g fill="#000000" fill-opacity="1"><g transform="translate(302.5329, 58.613708)"><g><path d="M 17.578125 0.78125 C 14.421875 0.78125 11.359375 0.390625 8.390625 -0.390625 C 5.429688 -1.171875 3.023438 -2.207031 1.171875 -3.5 L 4.78125 -11.625 C 6.519531 -10.476562 8.539062 -9.550781 10.84375 -8.84375 C 13.144531 -8.132812 15.410156 -7.78125 17.640625 -7.78125 C 21.859375 -7.78125 23.96875 -8.835938 23.96875 -10.953125 C 23.96875 -12.066406 23.363281 -12.890625 22.15625 -13.421875 C 20.957031 -13.960938 19.023438 -14.53125 16.359375 -15.125 C 13.421875 -15.757812 10.96875 -16.4375 9 -17.15625 C 7.039062 -17.882812 5.351562 -19.046875 3.9375 -20.640625 C 2.53125 -22.234375 1.828125 -24.382812 1.828125 -27.09375 C 1.828125 -29.46875 2.476562 -31.609375 3.78125 -33.515625 C 5.082031 -35.421875 7.019531 -36.929688 9.59375 -38.046875 C 12.175781 -39.160156 15.335938 -39.71875 19.078125 -39.71875 C 21.640625 -39.71875 24.160156 -39.425781 26.640625 -38.84375 C 29.128906 -38.269531 31.316406 -37.429688 33.203125 -36.328125 L 29.8125 -28.140625 C 26.101562 -30.148438 22.507812 -31.15625 19.03125 -31.15625 C 16.832031 -31.15625 15.234375 -30.828125 14.234375 -30.171875 C 13.234375 -29.523438 12.734375 -28.679688 12.734375 -27.640625 C 12.734375 -26.609375 13.328125 -25.832031 14.515625 -25.3125 C 15.703125 -24.789062 17.613281 -24.253906 20.25 -23.703125 C 23.21875 -23.066406 25.671875 -22.382812 27.609375 -21.65625 C 29.554688 -20.9375 31.242188 -19.789062 32.671875 -18.21875 C 34.109375 -16.644531 34.828125 -14.503906 34.828125 -11.796875 C 34.828125 -9.453125 34.175781 -7.332031 32.875 -5.4375 C 31.570312 -3.550781 29.625 -2.039062 27.03125 -0.90625 C 24.4375 0.21875 21.285156 0.78125 17.578125 0.78125 Z M 17.578125 0.78125 "/></g></g></g></g></svg>